<svg viewBox="0 0 112 111" fill="none" xmlns="http://www.w3.org/2000/svg">
<path d="M83.8604 20.9152C88.3997 24.5511 92.2078 29.0622 95.0286 34.1928C98.1922 39.9466 100.114 46.4795 100.434 53.4306" stroke="#010101"/>
<path d="M101.138 55.9499C102.083 56.0633 102.905 56.3829 103.603 56.9085C104.3 57.4435 104.812 58.1113 105.139 58.9119C105.474 59.723 105.588 60.5779 105.48 61.4768C105.356 62.5054 104.992 63.3876 104.387 64.1234C103.789 64.8695 103.006 65.3677 102.036 65.6178L102.264 63.7135C102.804 63.5245 103.226 63.2226 103.529 62.8078C103.833 62.3931 104.02 61.8938 104.09 61.31C104.167 60.6705 104.091 60.0834 103.864 59.5485C103.637 59.0136 103.272 58.5703 102.769 58.2185C102.265 57.8759 101.656 57.6619 100.942 57.5762C100.229 57.4905 99.5866 57.5545 99.0157 57.7679C98.4438 57.9907 97.9795 58.3345 97.6229 58.7993C97.2756 59.2652 97.0635 59.8179 96.9867 60.4573C96.9167 61.0411 96.98 61.5704 97.1768 62.0452C97.3736 62.5201 97.7119 62.9132 98.1915 63.2246L97.9629 65.1289C97.0796 64.6563 96.4361 63.9868 96.0325 63.1205C95.6278 62.2635 95.4871 61.3207 95.6106 60.2921C95.7196 59.3839 96.0277 58.5796 96.5348 57.879C97.0512 57.1796 97.7114 56.6525 98.5154 56.2978C99.3183 55.9524 100.192 55.8364 101.138 55.9499Z" fill="#010101"/>
<path d="M93.5176 68.9479C93.7657 68.2634 94.1434 67.7005 94.6509 67.259C95.1671 66.8206 95.7633 66.5453 96.4394 66.4329C97.1242 66.3238 97.8396 66.4043 98.5855 66.6746C99.3225 66.9418 99.9174 67.341 100.37 67.8724C100.823 68.4038 101.101 69.0059 101.205 69.6788C101.308 70.3517 101.234 71.0348 100.983 71.728C100.732 72.4212 100.351 72.993 99.8402 73.4432C99.3296 73.8935 98.7302 74.1776 98.0422 74.2956C97.3542 74.4135 96.6416 74.3389 95.9045 74.0718C95.1674 73.8047 94.5741 73.401 94.1246 72.8609C93.6751 72.3207 93.3974 71.7038 93.2914 71.0102C93.191 70.3285 93.2664 69.6411 93.5176 68.9479ZM94.8207 69.4201C94.6807 69.8062 94.6425 70.1994 94.7059 70.5996C94.7662 71.0086 94.9424 71.3852 95.2346 71.7294C95.5268 72.0735 95.9362 72.341 96.4627 72.5318C96.9891 72.7226 97.4688 72.7823 97.9018 72.7109C98.3434 72.6427 98.7168 72.4752 99.022 72.2085C99.3271 71.9419 99.5496 71.6155 99.6895 71.2294C99.8295 70.8433 99.8677 70.4502 99.8043 70.0499C99.7377 69.6585 99.5551 69.2994 99.2565 68.9728C98.9667 68.6494 98.5586 68.3923 98.0321 68.2015C97.2511 67.9184 96.5741 67.8964 96.001 68.1355C95.4336 68.3864 95.0401 68.8147 94.8207 69.4201Z" fill="#010101"/>
<path d="M96.4988 80.8827C96.175 81.3957 95.7796 81.7863 95.3124 82.0543C94.8403 82.3302 94.3228 82.4506 93.76 82.4155C93.1973 82.3804 92.6199 82.176 92.0279 81.8024L88.1801 79.374L89.0245 78.0362L92.671 80.3376C93.2551 80.7062 93.7932 80.8416 94.2853 80.7439C94.7853 80.6511 95.1947 80.3521 95.5135 79.847C95.8323 79.3418 95.9285 78.8397 95.8021 78.3405C95.6786 77.8542 95.3248 77.4267 94.7407 77.0581L91.0942 74.7567L91.9461 73.407L98.4695 77.5241L97.6177 78.8738L96.8718 78.4031C97.0007 78.7934 97.033 79.2056 96.9688 79.6397C96.8996 80.0816 96.7429 80.4959 96.4988 80.8827Z" fill="#010101"/>
<path d="M90.2509 86.7138L87.1028 83.829C86.8894 83.6335 86.6905 83.5398 86.5059 83.5478C86.3218 83.5691 86.1195 83.7001 85.8988 83.941L85.2367 84.6635L84.2561 83.7649L85.1074 82.836C85.5929 82.3061 86.0888 82.0136 86.5951 81.9585C87.1013 81.9034 87.6331 82.1312 88.1905 82.642L91.3386 85.5268L91.9534 84.8559L92.9133 85.7356L92.2985 86.4065L93.7126 87.7023L92.6248 88.8893L91.2108 87.5935L89.9433 88.9766L88.9834 88.0969L90.2509 86.7138Z" fill="#010101"/>
<path d="M86.0429 87.6916C86.51 88.3097 86.797 88.9526 86.904 89.6205C87.0035 90.294 86.9321 90.9271 86.6897 91.5197C86.4455 92.1254 86.0553 92.6308 85.5192 93.036C85.0352 93.4017 84.5413 93.6229 84.0376 93.6994C83.5321 93.789 83.0644 93.7739 82.6346 93.6541L83.3099 94.5476L82.0254 95.5183L77.3746 89.364L78.659 88.3933L79.3512 89.3092C79.3477 88.8556 79.4589 88.3914 79.6849 87.9164C79.9109 87.4414 80.2622 87.0239 80.7387 86.6638C81.2674 86.2642 81.8527 86.0325 82.4946 85.9686C83.1422 85.9121 83.7791 86.0273 84.4055 86.3144C85.0301 86.6145 85.5759 87.0736 86.0429 87.6916ZM80.9887 91.4761C81.3094 91.9005 81.6773 92.2016 82.0924 92.3793C82.5 92.5626 82.9072 92.6292 83.3139 92.5792C83.7207 92.5292 84.0879 92.3804 84.4155 92.1328C84.7431 91.8852 84.9865 91.5726 85.1457 91.1949C85.3105 90.8247 85.364 90.4157 85.3064 89.9679C85.247 89.5332 85.0569 89.1036 84.7361 88.6792C84.4154 88.2548 84.0484 87.9472 83.6351 87.7564C83.2145 87.5713 82.7979 87.5 82.3856 87.5426C81.9714 87.5982 81.6042 87.747 81.284 87.989C80.9563 88.2366 80.7129 88.5492 80.5538 88.9268C80.3946 89.3045 80.3476 89.7144 80.4127 90.1566C80.4759 90.6118 80.6679 91.0516 80.9887 91.4761Z" fill="#010101"/>
<path d="M78.0408 93.4956C78.3742 94.2155 78.5224 94.9132 78.4854 95.5885C78.444 96.2763 78.2335 96.888 77.8542 97.4237C77.4748 97.9594 76.9506 98.3821 76.2815 98.692C75.4346 99.0842 74.6418 99.2045 73.903 99.0529C73.1597 98.9137 72.5181 98.5166 71.9781 97.8615L73.5407 97.1378C73.8286 97.4263 74.1573 97.6031 74.527 97.6685C74.8967 97.7339 75.2933 97.6685 75.7168 97.4724C76.3096 97.1979 76.6858 96.7665 76.8454 96.1783C77.0005 95.6025 76.9035 94.9377 76.5544 94.184C76.2054 93.4302 75.7592 92.922 75.2158 92.6593C74.664 92.4006 74.0917 92.4085 73.4988 92.683C72.6604 93.0713 72.2762 93.6966 72.3465 94.559L70.7839 95.2826C70.6577 94.477 70.776 93.7331 71.1389 93.0508C71.5057 92.3769 72.1041 91.8478 72.9341 91.4635C73.6031 91.1536 74.2646 91.0273 74.9185 91.0845C75.5763 91.1501 76.179 91.3853 76.7264 91.7901C77.2693 92.2072 77.7074 92.7757 78.0408 93.4956Z" fill="#010101"/>
<path d="M68.2168 100.115L67.1156 95.9897C67.041 95.7102 66.9237 95.5242 66.7638 95.4316C66.5972 95.3505 66.3561 95.352 66.0405 95.4363L65.0936 95.689L64.7506 94.404L65.968 94.0791C66.6624 93.8937 67.2377 93.914 67.6941 94.14C68.1505 94.3659 68.4762 94.8441 68.6711 95.5745L69.7724 99.7001L70.6516 99.4654L70.9873 100.723L70.1081 100.958L70.6028 102.811L69.0472 103.226L68.5526 101.373L66.7401 101.857L66.4043 100.599L68.2168 100.115Z" fill="#010101"/>
<path d="M57.9297 101.663L57.765 97.3962C57.7538 97.1071 57.6804 96.8998 57.5448 96.7742C57.4002 96.6584 57.1647 96.6068 56.8383 96.6194L55.859 96.6572L55.8077 95.3282L57.0668 95.2796C57.7849 95.2518 58.3416 95.3985 58.737 95.7194C59.1323 96.0404 59.3446 96.5786 59.3738 97.3341L59.5385 101.601L60.4478 101.566L60.4981 102.867L59.5887 102.902L59.6628 104.818L58.0539 104.881L57.9799 102.964L56.1053 103.036L56.0551 101.735L57.9297 101.663Z" fill="#010101"/>
<path d="M50.8384 94.7987C51.5598 94.8966 52.1899 95.1469 52.7286 95.5496C53.2661 95.9616 53.6612 96.4861 53.9139 97.1232C54.1653 97.7696 54.2376 98.4858 54.131 99.2719C54.0256 100.049 53.761 100.715 53.3373 101.269C52.9135 101.824 52.3837 102.223 51.7479 102.467C51.1121 102.71 50.4288 102.782 49.6982 102.683C48.9676 102.584 48.3282 102.332 47.7802 101.928C47.2322 101.524 46.8279 100.999 46.5673 100.351C46.3066 99.7033 46.229 98.9911 46.3344 98.2142C46.4398 97.4373 46.709 96.7722 47.142 96.2187C47.575 95.6652 48.1193 95.2634 48.7749 95.0132C49.4199 94.7711 50.1078 94.6996 50.8384 94.7987ZM50.6521 96.1721C50.2452 96.1169 49.8528 96.1626 49.475 96.3091C49.088 96.4544 48.7571 96.7062 48.4824 97.0646C48.2078 97.4229 48.0328 97.8795 47.9575 98.4344C47.8822 98.9893 47.9252 99.4708 48.0865 99.8789C48.2465 100.296 48.4891 100.626 48.8142 100.868C49.1393 101.11 49.5053 101.258 49.9123 101.313C50.3192 101.369 50.7116 101.323 51.0894 101.176C51.4579 101.029 51.7703 100.774 52.0264 100.413C52.2813 100.062 52.4464 99.6085 52.5217 99.0536C52.6334 98.2305 52.5119 97.5641 52.1572 97.0545C51.7919 96.5528 51.2903 96.2587 50.6521 96.1721Z" fill="#010101"/>
<path d="M38.3122 95.3119L36.6291 90.3485L38.5988 91.2253L39.8587 95.418L41.208 92.3867L42.6661 93.0358L38.453 102.5L36.995 101.851L39.4431 96.3517L35.513 98.2954L33.4921 97.3959L38.3122 95.3119Z" fill="#010101"/>
<path d="M28.4672 94.2222C27.9741 93.8689 27.6073 93.4513 27.3671 92.9692C27.1193 92.4817 27.0294 91.9581 27.0974 91.3984C27.1655 90.8386 27.4033 90.2742 27.8109 89.7051L30.4605 86.0062L31.7466 86.9274L29.2356 90.4329C28.8334 90.9944 28.6667 91.5236 28.7355 92.0206C28.7988 92.5252 29.0733 92.9514 29.5589 93.2993C30.0445 93.6471 30.5402 93.7726 31.0459 93.6756C31.5386 93.5808 31.986 93.2526 32.3882 92.6911L34.8992 89.1857L36.1967 90.1151L31.7046 96.3862L30.4072 95.4568L30.9208 94.7398C30.5235 94.8456 30.1101 94.8537 29.6806 94.7642C29.2435 94.6692 28.839 94.4885 28.4672 94.2222Z" fill="#010101"/>
<path d="M26.8009 82.1215C27.2888 82.6618 27.6086 83.2596 27.7603 83.9149C27.905 84.5765 27.8683 85.2321 27.6502 85.8818C27.4252 86.5378 27.0183 87.1316 26.4295 87.6634C25.8477 88.1888 25.2159 88.5267 24.5342 88.677C23.8525 88.8274 23.1903 88.7903 22.5475 88.566C21.9047 88.3416 21.3362 87.9558 20.842 87.4086C20.3478 86.8614 20.0218 86.2567 19.8639 85.5944C19.7059 84.9321 19.7364 84.2696 19.9552 83.6067C20.1739 82.9438 20.5743 82.3496 21.1561 81.8241C21.738 81.2987 22.3728 80.9642 23.0608 80.8208C23.7487 80.6775 24.4238 80.7217 25.0861 80.9537C25.7351 81.185 26.3067 81.5743 26.8009 82.1215ZM25.7723 83.0504C25.497 82.7456 25.1678 82.5273 24.7847 82.3955C24.3952 82.2567 23.98 82.2355 23.5389 82.332C23.0979 82.4285 22.6696 82.6644 22.2539 83.0398C21.8383 83.4151 21.5605 83.8107 21.4204 84.2265C21.2733 84.6485 21.2459 85.0568 21.3382 85.4514C21.4304 85.846 21.6142 86.1957 21.8894 86.5004C22.1646 86.8052 22.4939 87.0235 22.877 87.1554C23.2539 87.2803 23.6567 87.2876 24.0852 87.1772C24.5068 87.0732 24.9254 86.8334 25.341 86.4581C25.9575 85.9014 26.2947 85.3139 26.3526 84.6957C26.3974 84.0768 26.2039 83.5284 25.7723 83.0504Z" fill="#010101"/>
<path d="M11.8637 73.4447L19.7805 71.8441L20.5865 73.3181L16.3327 77.4154L22.0776 76.0451L22.8837 77.5191L17.2708 83.3329L16.4916 81.908L21.1608 77.5198L14.9333 79.0582L14.134 77.5965L18.7987 73.2586L12.616 74.8204L11.8637 73.4447Z" fill="#010101"/>
<path d="M8.52291 57.4422C8.4622 56.8385 8.53339 56.2873 8.73648 55.7885C8.93865 55.2804 9.27228 54.8669 9.73737 54.5481C10.2015 54.22 10.7819 54.0209 11.4783 53.9509L16.0055 53.4955L16.1638 55.0696L11.8735 55.5011C11.1863 55.5702 10.6789 55.7948 10.3513 56.1748C10.0144 56.5558 9.8758 57.0434 9.93558 57.6378C9.99536 58.2321 10.2287 58.687 10.6357 59.0025C11.0324 59.3097 11.5744 59.4287 12.2616 59.3596L16.5519 58.9281L16.7103 60.5021L12.4199 60.9337C11.7327 61.0028 11.2253 61.2274 10.8977 61.6074C10.5608 61.9884 10.4222 62.476 10.482 63.0703C10.5418 63.6647 10.7752 64.1196 11.1821 64.4351C11.5788 64.7423 12.1208 64.8613 12.808 64.7922L17.0984 64.3607L17.2581 65.9487L9.58281 66.7207L9.42309 65.1327L10.3007 65.0444C9.95877 64.8161 9.67952 64.5112 9.46291 64.1297C9.2463 63.7481 9.11511 63.3298 9.06934 62.8747C9.00769 62.2618 9.08259 61.7009 9.29404 61.1918C9.50549 60.6828 9.84423 60.2735 10.3103 59.9639C9.82259 59.7785 9.41934 59.4532 9.10053 58.9881C8.77243 58.5239 8.57989 58.0086 8.52291 57.4422Z" fill="#010101"/>
<path d="M17.0841 48.8887C16.9614 49.6063 16.6895 50.2274 16.2684 50.7519C15.8381 51.2749 15.3003 51.6516 14.6549 51.8821C14.0002 52.1111 13.2819 52.1587 12.5 52.025C11.7272 51.8928 11.0709 51.6055 10.5311 51.1628C9.99131 50.7202 9.61076 50.1769 9.38944 49.5331C9.16812 48.8893 9.11959 48.2039 9.24386 47.4772C9.36813 46.7504 9.64159 46.1201 10.0643 45.5864C10.4869 45.0526 11.0264 44.6667 11.6825 44.4286C12.3387 44.1904 13.0532 44.1374 13.826 44.2695C14.5988 44.4017 15.2543 44.6936 15.7925 45.1455C16.3307 45.5973 16.7135 46.1552 16.9409 46.819C17.1606 47.472 17.2084 48.1619 17.0841 48.8887ZM15.7179 48.6551C15.7871 48.2503 15.755 47.8566 15.6216 47.474C15.4898 47.0822 15.2495 46.7428 14.9009 46.456C14.5522 46.1691 14.1019 45.9785 13.5499 45.8841C12.998 45.7897 12.5153 45.8161 12.1019 45.9632C11.6793 46.1087 11.3416 46.3398 11.0886 46.6563C10.8356 46.9729 10.6745 47.3336 10.6053 47.7383C10.5361 48.1431 10.5682 48.5368 10.7016 48.9195C10.8366 49.2929 11.08 49.6138 11.4318 49.8823C11.7744 50.1492 12.2217 50.3298 12.7737 50.4242C13.5924 50.5642 14.2626 50.4658 14.7842 50.1288C15.2982 49.7811 15.6094 49.2899 15.7179 48.6551Z" fill="#010101"/>
<path d="M12.3296 40.3967C12.0379 40.046 11.8547 39.6544 11.7801 39.2221C11.6997 38.7778 11.7483 38.3049 11.9258 37.8034L13.4831 38.3546L13.3476 38.7373C13.139 39.3268 13.1297 39.8285 13.3199 40.2423C13.5132 40.6473 13.9793 40.9806 14.7184 41.2422L18.5457 42.5969L18.0132 44.1014L10.7413 41.5276L11.2738 40.023L12.3296 40.3967Z" fill="#010101"/>
<path d="M19.6985 30.9579C19.9508 31.0996 20.1695 31.2438 20.3547 31.3905L17.4698 36.5302C18.0298 36.791 18.5731 36.8338 19.0997 36.6584C19.6262 36.483 20.0357 36.1349 20.3281 35.614C20.7484 34.8652 20.732 34.1603 20.2789 33.4993L21.1217 31.9976C21.6261 32.5483 21.9269 33.2041 22.0242 33.9652C22.1179 34.7135 21.9432 35.4824 21.5001 36.2718C21.1392 36.9148 20.6724 37.4127 20.0997 37.7656C19.5235 38.1057 18.8927 38.2761 18.2074 38.2767C17.5184 38.2647 16.8281 38.0645 16.1363 37.6762C15.4445 37.2878 14.9158 36.8091 14.5502 36.24C14.1811 35.6582 13.9957 35.0351 13.9941 34.3706C13.997 33.6979 14.1835 33.032 14.5535 32.3728C14.9099 31.7379 15.3657 31.2499 15.9211 30.9088C16.4765 30.5676 17.0842 30.4003 17.7441 30.4068C18.3959 30.4088 19.0474 30.5925 19.6985 30.9579ZM18.4435 32.1641C17.9262 31.8844 17.4124 31.8368 16.9021 32.0213C16.3918 32.2058 15.9882 32.5626 15.6913 33.0916C15.4217 33.5718 15.3457 34.0696 15.4631 34.5851C15.5724 35.0959 15.8692 35.5301 16.3535 35.8876L18.4435 32.1641Z" fill="#010101"/>
<path d="M22.903 26.8609C22.3714 26.2975 22.0161 25.6896 21.8369 25.0374C21.6646 24.3787 21.6666 23.7416 21.843 23.1261C22.0197 22.4974 22.3525 21.9525 22.8413 21.4913C23.2825 21.075 23.7494 20.8014 24.2418 20.6704C24.7345 20.5263 25.2011 20.4903 25.6413 20.5626L24.8727 19.7479L26.0438 18.6431L31.3375 24.2539L30.1665 25.3588L29.3787 24.5238C29.4316 24.9743 29.3716 25.4479 29.1987 25.9447C29.0258 26.4414 28.7221 26.8948 28.2876 27.3047C27.8056 27.7595 27.2491 28.0536 26.618 28.1871C25.9805 28.3138 25.3347 28.2686 24.6808 28.0515C24.0272 27.8213 23.4347 27.4244 22.903 26.8609ZM27.5148 22.5483C27.1497 22.1613 26.7512 21.9021 26.3193 21.7707C25.8941 21.6329 25.4821 21.611 25.0832 21.7051C24.6843 21.7991 24.3355 21.987 24.0368 22.2689C23.7381 22.5507 23.5302 22.888 23.4132 23.2807C23.2897 23.6667 23.281 24.0791 23.3871 24.5179C23.4936 24.9436 23.7294 25.3499 24.0945 25.7368C24.4595 26.1238 24.8579 26.3896 25.2894 26.5342C25.7278 26.6724 26.1496 26.6978 26.5549 26.6106C26.9605 26.5101 27.3093 26.3222 27.6012 26.0468C27.8999 25.765 28.1078 25.4277 28.2249 25.0349C28.3419 24.6422 28.344 24.2296 28.2312 23.7971C28.1187 23.3515 27.8799 22.9352 27.5148 22.5483Z" fill="#010101"/>
<path d="M30.7238 16.6934C30.7687 16.2344 30.9334 15.7864 31.2182 15.3492C31.5062 14.8992 31.8999 14.5279 32.3992 14.2355C32.9871 13.8911 33.6012 13.7207 34.2415 13.7242C34.8817 13.7277 35.4921 13.911 36.0725 14.2741C36.6483 14.6291 37.1319 15.1408 37.5235 15.8093C37.915 16.4777 38.1296 17.1579 38.1671 17.8498C38.1999 18.5336 38.062 19.1661 37.7534 19.7471C37.4481 20.3154 37.0055 20.7693 36.4256 21.109C35.9102 21.4109 35.3922 21.5791 34.8716 21.6137C34.3591 21.6435 33.894 21.5698 33.4765 21.3925L34.0426 22.3589L32.6655 23.1656L27.429 14.2264L28.8061 13.4197L30.7238 16.6934ZM36.1222 16.6301C35.8533 16.1711 35.5255 15.8331 35.1388 15.6161C34.7554 15.3864 34.3572 15.2789 33.944 15.2938C33.5342 15.2959 33.1521 15.4007 32.7978 15.6083C32.4515 15.8111 32.1732 16.0931 31.9629 16.4543C31.7607 16.8107 31.662 17.2147 31.6668 17.6662C31.6797 18.1129 31.8206 18.5658 32.0895 19.0248C32.3584 19.4839 32.6869 19.8323 33.075 20.0701C33.4664 20.2951 33.867 20.4066 34.2768 20.4045C34.6947 20.3976 35.0768 20.2928 35.4231 20.09C35.7774 19.8824 36.0557 19.6004 36.258 19.2439C36.4635 18.8747 36.5575 18.4627 36.5399 18.0079C36.5303 17.5484 36.3911 17.0891 36.1222 16.6301Z" fill="#010101"/>
<path d="M43.8056 17.8115C43.1132 18.0363 42.4369 18.084 41.7768 17.9548C41.1138 17.8167 40.5303 17.5155 40.0263 17.051C39.5194 16.5777 39.1436 15.9638 38.8987 15.2092C38.6567 14.4635 38.6063 13.7488 38.7474 13.0651C38.8886 12.3815 39.1929 11.7921 39.6602 11.297C40.1275 10.8019 40.7119 10.4406 41.4132 10.213C42.1145 9.98535 42.7997 9.93471 43.4687 10.061C44.1377 10.1874 44.7301 10.4857 45.2458 10.9562C45.7615 11.4266 46.1404 12.0347 46.3824 12.7804C46.6244 13.5261 46.6704 14.2422 46.5203 14.9287C46.3703 15.6153 46.0541 16.2134 45.5719 16.7231C45.0957 17.2211 44.507 17.5839 43.8056 17.8115ZM43.3778 16.4932C43.7684 16.3664 44.1021 16.1551 44.379 15.8592C44.6647 15.5604 44.8536 15.19 44.9456 14.748C45.0377 14.306 44.9973 13.8187 44.8244 13.286C44.6516 12.7534 44.404 12.3382 44.0817 12.0405C43.7565 11.7339 43.3949 11.5421 42.9971 11.4652C42.5992 11.3882 42.205 11.4131 41.8144 11.5399C41.4238 11.6667 41.0901 11.878 40.8132 12.1739C40.5453 12.467 40.3741 12.8316 40.2998 13.2678C40.2227 13.6952 40.2705 14.1752 40.4434 14.7079C40.6998 15.498 41.0983 16.0457 41.639 16.351C42.1856 16.6446 42.7653 16.692 43.3778 16.4932Z" fill="#010101"/>
<path d="M54.2864 7.94824L55.0584 15.6235L53.4704 15.7832L53.3793 14.8778C53.1603 15.2188 52.8559 15.5027 52.466 15.7295C52.0844 15.9461 51.6661 16.0773 51.211 16.1231C50.6074 16.1838 50.0515 16.113 49.5434 15.9109C49.0446 15.7078 48.6311 15.3742 48.303 14.91C47.9842 14.4449 47.7898 13.8641 47.7197 13.1676L47.2658 8.6544L48.8398 8.49607L49.27 12.7725C49.3391 13.4597 49.5641 13.9717 49.9451 14.3086C50.3251 14.6363 50.8123 14.7702 51.4066 14.7104C52.001 14.6506 52.4517 14.4223 52.7589 14.0256C53.0744 13.6187 53.1976 13.0716 53.1285 12.3844L52.6984 8.10796L54.2864 7.94824Z" fill="#010101"/>
<path d="M59.7252 9.43321L59.3797 13.6892C59.3563 13.9776 59.4044 14.1922 59.5241 14.333C59.6538 14.4653 59.8815 14.5446 60.2071 14.571L61.1838 14.6503L61.0762 15.976L59.8204 15.874C59.1041 15.8159 58.5688 15.6039 58.2146 15.238C57.8603 14.8722 57.7138 14.3125 57.775 13.5589L58.1205 9.30294L57.2134 9.22932L57.3188 7.93159L58.2258 8.00521L58.381 6.0935L59.9857 6.22377L59.8305 8.13548L61.7004 8.28726L61.595 9.585L59.7252 9.43321Z" fill="#010101"/>
<path d="M75.4915 11.9813L72.8087 19.2137L71.3123 18.6586L71.6288 17.8054C71.2822 18.0153 70.8839 18.1364 70.4339 18.1686C69.996 18.1952 69.5626 18.129 69.1338 17.97C68.565 17.759 68.0969 17.451 67.7296 17.0459C67.3709 16.6441 67.1464 16.1626 67.0559 15.6014C66.9741 15.0435 67.055 14.4364 67.2985 13.7801L68.876 9.52727L70.3593 10.0775L68.8645 14.1072C68.6243 14.7547 68.6011 15.3136 68.7951 15.7837C68.9922 16.2451 69.3709 16.5796 69.9309 16.7874C70.4909 16.9951 70.9961 16.9884 71.4465 16.7672C71.9089 16.5406 72.2602 16.1034 72.5004 15.4559L73.9952 11.4262L75.4915 11.9813Z" fill="#010101"/>
<path d="M77.0264 21.7419C76.5122 21.42 76.1063 21.0393 75.8089 20.5998C75.5242 20.1574 75.3623 19.7037 75.3231 19.2386C75.2888 18.7657 75.3875 18.3265 75.6193 17.9211L77.0196 18.7976C76.87 19.0894 76.8544 19.4045 76.9729 19.7429C77.1043 20.0784 77.3519 20.36 77.7158 20.5878C78.0955 20.8255 78.4328 20.9376 78.7276 20.9239C79.0353 20.9073 79.261 20.7843 79.4046 20.5549C79.5581 20.3097 79.5534 20.0534 79.3903 19.7862C79.2352 19.5239 78.949 19.1631 78.5319 18.7037C78.1256 18.2622 77.8078 17.8816 77.5785 17.5619C77.3492 17.2421 77.2015 16.8799 77.1355 16.4753C77.0775 16.0755 77.1821 15.6621 77.4496 15.2349C77.6675 14.8868 77.9684 14.6347 78.3524 14.4787C78.7413 14.3147 79.1776 14.2685 79.6614 14.3401C80.153 14.4167 80.648 14.6109 81.1464 14.9229C81.8901 15.3884 82.3685 15.9522 82.5817 16.6142C82.8078 17.2733 82.7336 17.9371 82.3592 18.6056L81.0064 17.7587C81.1659 17.4512 81.1933 17.1435 81.0887 16.8357C80.984 16.528 80.7497 16.2602 80.3858 16.0324C80.0298 15.8095 79.7148 15.7059 79.4407 15.7216C79.1667 15.7372 78.9603 15.8558 78.8217 16.0773C78.7127 16.2513 78.6844 16.4373 78.7367 16.6352C78.789 16.8331 78.8838 17.0246 79.0212 17.2097C79.1635 17.3869 79.3805 17.6383 79.6721 17.964C80.0675 18.3878 80.3735 18.761 80.5899 19.0836C80.8192 19.4034 80.9654 19.7591 81.0284 20.151C81.0914 20.5428 80.9957 20.9508 80.7411 21.375C80.5083 21.7469 80.1975 22.0147 79.8086 22.1787C79.4196 22.3426 78.9833 22.3888 78.4996 22.3173C78.0238 22.2506 77.5327 22.0588 77.0264 21.7419Z" fill="#010101"/>
</svg>
