<svg width="21" height="20" viewBox="0 0 21 20" fill="inherit" xmlns="http://www.w3.org/2000/svg">
<path d="M10.957 20C5.43403 20 0.957031 15.523 0.957031 10C0.957031 4.477 5.43403 0 10.957 0C16.48 0 20.957 4.477 20.957 10C20.957 15.523 16.48 20 10.957 20ZM5.97003 16.256C7.38558 17.3877 9.14471 18.0029 10.957 18C12.927 18 14.73 17.288 16.124 16.108C15.4728 15.4397 14.6941 14.9089 13.8341 14.5468C12.9741 14.1847 12.0502 13.9988 11.117 14C10.1496 13.9989 9.19253 14.1989 8.3065 14.5872C7.42046 14.9756 6.62481 15.5439 5.97003 16.256ZM4.57303 14.82C5.41349 13.9281 6.4277 13.2177 7.55317 12.7327C8.67864 12.2477 9.89151 11.9984 11.117 12C12.2987 11.9985 13.469 12.2304 14.5608 12.6824C15.6526 13.1344 16.6443 13.7976 17.479 14.634C18.3351 13.4291 18.8407 12.0106 18.9396 10.5359C19.0385 9.06119 18.727 7.58789 18.0395 6.27946C17.3521 4.97102 16.3156 3.87862 15.045 3.12345C13.7744 2.36827 12.3195 1.97984 10.8416 2.00125C9.36375 2.02267 7.92069 2.45308 6.67255 3.24476C5.42441 4.03643 4.41999 5.1584 3.77072 6.4862C3.12146 7.814 2.85273 9.29571 2.99435 10.7669C3.13597 12.2382 3.6824 13.6404 4.57303 14.82ZM10.957 11C9.89616 11 8.87875 10.5786 8.1286 9.82843C7.37846 9.07828 6.95703 8.06087 6.95703 7C6.95703 5.93913 7.37846 4.92172 8.1286 4.17157C8.87875 3.42143 9.89616 3 10.957 3C12.0179 3 13.0353 3.42143 13.7855 4.17157C14.5356 4.92172 14.957 5.93913 14.957 7C14.957 8.06087 14.5356 9.07828 13.7855 9.82843C13.0353 10.5786 12.0179 11 10.957 11ZM10.957 9C11.4875 9 11.9962 8.78929 12.3712 8.41421C12.7463 8.03914 12.957 7.53043 12.957 7C12.957 6.46957 12.7463 5.96086 12.3712 5.58579C11.9962 5.21071 11.4875 5 10.957 5C10.4266 5 9.91789 5.21071 9.54282 5.58579C9.16775 5.96086 8.95703 6.46957 8.95703 7C8.95703 7.53043 9.16775 8.03914 9.54282 8.41421C9.91789 8.78929 10.4266 9 10.957 9Z" />
</svg>
