<svg  viewBox="0 0 50 37" fill="inherit" xmlns="http://www.w3.org/2000/svg">
<path d="M11.5073 36.4123C8.26019 36.4123 5.62741 35.2714 3.60895 32.9897C1.67824 30.6202 0.712891 27.5486 0.712891 23.775C0.712891 18.8604 2.16092 14.2969 5.05698 10.0845C7.95304 5.78429 11.5512 2.58108 15.8514 0.474854L16.6412 2.05452C14.7983 3.45867 13.1747 5.25774 11.7706 7.45172C10.3664 9.6457 9.35719 12.3662 8.74287 15.6133L11.5073 16.2715C14.5789 16.9736 16.9484 18.29 18.6158 20.2207C20.371 22.0637 21.2486 24.3015 21.2486 26.9343C21.2486 29.7426 20.2832 32.0243 18.3525 33.7795C16.5096 35.5347 14.2278 36.4123 11.5073 36.4123ZM39.2831 36.4123C36.036 36.4123 33.4033 35.2714 31.3848 32.9897C29.4541 30.6202 28.4887 27.5486 28.4887 23.775C28.4887 18.8604 29.9368 14.2969 32.8328 10.0845C35.7289 5.78429 39.327 2.58108 43.6272 0.474854L44.417 2.05452C42.5741 3.45867 40.9506 5.25774 39.5464 7.45172C38.1423 9.6457 37.133 12.3662 36.5187 15.6133L39.2831 16.2715C42.3547 16.9736 44.7242 18.29 46.3916 20.2207C48.1468 22.0637 49.0244 24.3015 49.0244 26.9343C49.0244 29.7426 48.0591 32.0243 46.1284 33.7795C44.2854 35.5347 42.0037 36.4123 39.2831 36.4123Z"/>
</svg>
