<svg width="22" height="22" viewBox="0 0 22 22" fill="inherit" xmlns="http://www.w3.org/2000/svg">
<path d="M9 0.359406C9.33 0.330406 9.663 0.316406 10 0.316406C16.351 0.316406 21.5 5.46541 21.5 11.8164C21.5 12.1534 21.486 12.4864 21.457 12.8164H19.951C19.449 17.8694 15.185 21.8164 10 21.8164C4.477 21.8164 0 17.3394 0 11.8164C0 6.63141 3.947 2.36741 9 1.86641V0.359406ZM9 12.8164V3.87841C6.98271 4.13509 5.13885 5.15027 3.84319 6.71762C2.54752 8.28497 1.89728 10.2869 2.02462 12.3164C2.15196 14.346 3.04733 16.2509 4.52874 17.644C6.01016 19.0371 7.96645 19.8139 10 19.8164C11.9486 19.8164 13.8302 19.1052 15.2917 17.8164C16.7533 16.5276 17.6942 14.7497 17.938 12.8164H9ZM19.448 10.8164C19.2187 8.65431 18.255 6.6362 16.7176 5.09879C15.1802 3.56139 13.1621 2.59766 11 2.36841V10.8164H19.448Z" />
</svg>
